<svg width="34" height="43" viewBox="0 0 34 43" fill="none" xmlns="http://www.w3.org/2000/svg">
<path d="M16.9999 23.418C20.1065 23.418 22.6249 20.8442 22.6249 17.6693C22.6249 14.4944 20.1065 11.9206 16.9999 11.9206C13.8933 11.9206 11.3749 14.4944 11.3749 17.6693C11.3749 20.8442 13.8933 23.418 16.9999 23.418Z" stroke="white" stroke-width="3" stroke-linecap="round" stroke-linejoin="round"/>
<path d="M17 2.34479C13.0218 2.34479 9.20644 3.95957 6.3934 6.83391C3.58035 9.70824 2 13.6067 2 17.6716C2 21.2964 2.75375 23.6682 4.8125 26.2929L17 40.6618L29.1875 26.2929C31.2463 23.6682 32 21.2964 32 17.6716C32 13.6067 30.4196 9.70824 27.6066 6.83391C24.7936 3.95957 20.9782 2.34479 17 2.34479V2.34479Z" stroke="white" stroke-width="3" stroke-linecap="round" stroke-linejoin="round"/>
</svg>
