<svg width="40" height="40" viewBox="0 0 40 40" fill="none" xmlns="http://www.w3.org/2000/svg">
<path fill-rule="evenodd" clip-rule="evenodd" d="M12.4417 1.7765C14.3967 1.6865 15.0201 1.6665 20.0001 1.6665C24.9801 1.6665 25.6034 1.68817 27.5567 1.7765C29.5101 1.86484 30.8434 2.1765 32.0101 2.62817C33.2317 3.08984 34.3401 3.8115 35.2567 4.74484C36.1901 5.65984 36.9101 6.7665 37.3701 7.98984C37.8234 9.1565 38.1334 10.4898 38.2234 12.4398C38.3134 14.3982 38.3334 15.0215 38.3334 19.9998C38.3334 24.9798 38.3117 25.6032 38.2234 27.5582C38.1351 29.5082 37.8234 30.8415 37.3701 32.0082C36.9101 33.2317 36.1889 34.3402 35.2567 35.2565C34.3401 36.1898 33.2317 36.9098 32.0101 37.3698C30.8434 37.8232 29.5101 38.1332 27.5601 38.2232C25.6034 38.3132 24.9801 38.3332 20.0001 38.3332C15.0201 38.3332 14.3967 38.3115 12.4417 38.2232C10.4917 38.1348 9.15841 37.8232 7.99175 37.3698C6.76828 36.9098 5.65978 36.1886 4.74341 35.2565C3.81071 34.341 3.08894 33.233 2.62841 32.0098C2.17675 30.8432 1.86675 29.5098 1.77675 27.5598C1.68675 25.6015 1.66675 24.9782 1.66675 19.9998C1.66675 15.0198 1.68841 14.3965 1.77675 12.4432C1.86508 10.4898 2.17675 9.1565 2.62841 7.98984C3.08962 6.76664 3.81195 5.65869 4.74508 4.74317C5.66015 3.81067 6.76753 3.08891 7.99008 2.62817C9.15675 2.1765 10.4901 1.8665 12.4401 1.7765H12.4417ZM27.4084 5.0765C25.4751 4.98817 24.8951 4.96984 20.0001 4.96984C15.1051 4.96984 14.5251 4.98817 12.5917 5.0765C10.8034 5.15817 9.83341 5.4565 9.18675 5.70817C8.33175 6.0415 7.72008 6.4365 7.07841 7.07817C6.47016 7.66992 6.00205 8.39031 5.70841 9.1865C5.45675 9.83317 5.15841 10.8032 5.07675 12.5915C4.98841 14.5248 4.97008 15.1048 4.97008 19.9998C4.97008 24.8948 4.98841 25.4748 5.07675 27.4082C5.15841 29.1965 5.45675 30.1665 5.70841 30.8132C6.00175 31.6082 6.47008 32.3298 7.07841 32.9215C7.67008 33.5298 8.39175 33.9982 9.18675 34.2915C9.83341 34.5432 10.8034 34.8415 12.5917 34.9232C14.5251 35.0115 15.1034 35.0298 20.0001 35.0298C24.8967 35.0298 25.4751 35.0115 27.4084 34.9232C29.1967 34.8415 30.1667 34.5432 30.8134 34.2915C31.6684 33.9582 32.2801 33.5632 32.9217 32.9215C33.5301 32.3298 33.9984 31.6082 34.2917 30.8132C34.5434 30.1665 34.8417 29.1965 34.9234 27.4082C35.0117 25.4748 35.0301 24.8948 35.0301 19.9998C35.0301 15.1048 35.0117 14.5248 34.9234 12.5915C34.8417 10.8032 34.5434 9.83317 34.2917 9.1865C33.9584 8.3315 33.5634 7.71984 32.9217 7.07817C32.33 6.46996 31.6096 6.00185 30.8134 5.70817C30.1667 5.4565 29.1967 5.15817 27.4084 5.0765ZM17.6584 25.6515C18.9662 26.1959 20.4224 26.2694 21.7783 25.8594C23.1342 25.4494 24.3057 24.5814 25.0928 23.4036C25.8798 22.2258 26.2335 20.8113 26.0935 19.4017C25.9535 17.9921 25.3284 16.6748 24.3251 15.6748C23.6855 15.0356 22.9121 14.5462 22.0606 14.2417C21.2092 13.9373 20.3008 13.8254 19.4009 13.9142C18.501 14.003 17.632 14.2901 16.8564 14.7551C16.0808 15.22 15.418 15.8511 14.9156 16.6029C14.4132 17.3548 14.0837 18.2087 13.9509 19.1031C13.8182 19.9976 13.8853 20.9103 14.1476 21.7757C14.41 22.6411 14.8609 23.4375 15.4679 24.1077C16.075 24.7779 16.8231 25.3051 17.6584 25.6515ZM13.3367 13.3365C14.2118 12.4615 15.2506 11.7673 16.3939 11.2938C17.5372 10.8202 18.7626 10.5765 20.0001 10.5765C21.2376 10.5765 22.463 10.8202 23.6062 11.2938C24.7495 11.7673 25.7884 12.4615 26.6634 13.3365C27.5385 14.2115 28.2326 15.2504 28.7061 16.3937C29.1797 17.537 29.4235 18.7623 29.4235 19.9998C29.4235 21.2373 29.1797 22.4627 28.7061 23.606C28.2326 24.7493 27.5385 25.7881 26.6634 26.6632C24.8962 28.4304 22.4993 29.4232 20.0001 29.4232C17.5008 29.4232 15.104 28.4304 13.3367 26.6632C11.5695 24.8959 10.5767 22.4991 10.5767 19.9998C10.5767 17.5006 11.5695 15.1037 13.3367 13.3365ZM31.5134 11.9798C31.7303 11.7753 31.9038 11.5293 32.0239 11.2565C32.144 10.9836 32.2081 10.6895 32.2124 10.3914C32.2168 10.0933 32.1613 9.79742 32.0492 9.52119C31.9372 9.24496 31.7708 8.99402 31.56 8.78324C31.3492 8.57245 31.0983 8.4061 30.8221 8.29403C30.5458 8.18197 30.2499 8.12646 29.9519 8.13081C29.6538 8.13515 29.3596 8.19926 29.0868 8.31933C28.8139 8.4394 28.568 8.613 28.3634 8.82984C27.9656 9.25155 27.7478 9.81171 27.7562 10.3914C27.7647 10.9711 27.9987 11.5246 28.4087 11.9346C28.8186 12.3445 29.3722 12.5786 29.9519 12.587C30.5315 12.5955 31.0917 12.3777 31.5134 11.9798Z" fill="#0FA958"/>
</svg>
