<svg width="208" height="70" viewBox="0 0 208 70" fill="none" xmlns="http://www.w3.org/2000/svg">
<path d="M11.912 15.84V24.928H26.568V33.376H11.912V43.232H28.488V52H0.968V7.072H28.488V15.84H11.912ZM56.713 52L49.865 42.08L44.105 52H32.265L44.041 33.76L31.945 16.288H44.233L51.081 26.144L56.841 16.288H68.681L56.713 34.272L69.001 52H56.713ZM84.162 21.344C85.2287 19.68 86.7007 18.336 88.578 17.312C90.4553 16.288 92.6527 15.776 95.17 15.776C98.114 15.776 100.781 16.5227 103.17 18.016C105.559 19.5093 107.437 21.6427 108.802 24.416C110.21 27.1893 110.914 30.4107 110.914 34.08C110.914 37.7493 110.21 40.992 108.802 43.808C107.437 46.5813 105.559 48.736 103.17 50.272C100.781 51.7653 98.114 52.512 95.17 52.512C92.6953 52.512 90.498 52 88.578 50.976C86.7007 49.952 85.2287 48.6293 84.162 47.008V69.024H73.218V16.288H84.162V21.344ZM99.778 34.08C99.778 31.3493 99.01 29.216 97.474 27.68C95.9807 26.1013 94.1247 25.312 91.906 25.312C89.73 25.312 87.874 26.1013 86.338 27.68C84.8447 29.2587 84.098 31.4133 84.098 34.144C84.098 36.8747 84.8447 39.0293 86.338 40.608C87.874 42.1867 89.73 42.976 91.906 42.976C94.082 42.976 95.938 42.1867 97.474 40.608C99.01 38.9867 99.778 36.8107 99.778 34.08ZM122.16 12.576C120.24 12.576 118.661 12.0213 117.424 10.912C116.229 9.76 115.632 8.352 115.632 6.688C115.632 4.98133 116.229 3.57333 117.424 2.464C118.661 1.312 120.24 0.735996 122.16 0.735996C124.037 0.735996 125.573 1.312 126.768 2.464C128.005 3.57333 128.624 4.98133 128.624 6.688C128.624 8.352 128.005 9.76 126.768 10.912C125.573 12.0213 124.037 12.576 122.16 12.576ZM127.6 16.288V52H116.656V16.288H127.6ZM133.355 34.144C133.355 30.432 134.101 27.1893 135.595 24.416C137.131 21.6427 139.243 19.5093 141.931 18.016C144.661 16.5227 147.776 15.776 151.275 15.776C155.755 15.776 159.488 16.9493 162.475 19.296C165.504 21.6427 167.488 24.9493 168.427 29.216H156.779C155.797 26.4853 153.899 25.12 151.083 25.12C149.077 25.12 147.477 25.9093 146.283 27.488C145.088 29.024 144.491 31.2427 144.491 34.144C144.491 37.0453 145.088 39.2853 146.283 40.864C147.477 42.4 149.077 43.168 151.083 43.168C153.899 43.168 155.797 41.8027 156.779 39.072H168.427C167.488 43.2533 165.504 46.5387 162.475 48.928C159.445 51.3173 155.712 52.512 151.275 52.512C147.776 52.512 144.661 51.7653 141.931 50.272C139.243 48.7787 137.131 46.6453 135.595 43.872C134.101 41.0987 133.355 37.856 133.355 34.144ZM207.944 33.568C207.944 34.592 207.881 35.6587 207.753 36.768H182.985C183.155 38.9867 183.859 40.6933 185.097 41.888C186.377 43.04 187.934 43.616 189.769 43.616C192.499 43.616 194.398 42.464 195.465 40.16H207.113C206.515 42.5067 205.427 44.6187 203.849 46.496C202.313 48.3733 200.371 49.8453 198.025 50.912C195.678 51.9787 193.054 52.512 190.153 52.512C186.654 52.512 183.539 51.7653 180.809 50.272C178.078 48.7787 175.945 46.6453 174.409 43.872C172.873 41.0987 172.105 37.856 172.105 34.144C172.105 30.432 172.851 27.1893 174.345 24.416C175.881 21.6427 178.014 19.5093 180.745 18.016C183.475 16.5227 186.611 15.776 190.153 15.776C193.609 15.776 196.681 16.5013 199.369 17.952C202.057 19.4027 204.147 21.472 205.641 24.16C207.177 26.848 207.944 29.984 207.944 33.568ZM196.745 30.688C196.745 28.8107 196.105 27.3173 194.825 26.208C193.545 25.0987 191.945 24.544 190.025 24.544C188.19 24.544 186.633 25.0773 185.353 26.144C184.115 27.2107 183.347 28.7253 183.049 30.688H196.745Z" fill="#35CC8B"/>
</svg>
