<svg width="35" height="35" viewBox="0 0 35 35" fill="none" xmlns="http://www.w3.org/2000/svg">
<circle cx="17.5" cy="17.5" r="17.5" fill="white"/>
<path d="M17.6903 17.284C20.1216 17.284 22.0925 15.3097 22.0925 12.8742C22.0925 10.4387 20.1216 8.46436 17.6903 8.46436C15.259 8.46436 13.2881 10.4387 13.2881 12.8742C13.2881 15.3097 15.259 17.284 17.6903 17.284Z" stroke="black" stroke-width="2"/>
<path d="M22.0924 19.0478H22.4023C23.046 19.048 23.6675 19.2836 24.1499 19.7104C24.6324 20.1372 24.9427 20.7258 25.0225 21.3656L25.3668 24.1209C25.3977 24.3691 25.3757 24.621 25.302 24.86C25.2283 25.099 25.1047 25.3196 24.9394 25.5071C24.7742 25.6946 24.5709 25.8448 24.3433 25.9476C24.1157 26.0504 23.8688 26.1036 23.6191 26.1035H11.7613C11.5116 26.1036 11.2647 26.0504 11.0371 25.9476C10.8094 25.8448 10.6062 25.6946 10.4409 25.5071C10.2757 25.3196 10.1521 25.099 10.0784 24.86C10.0047 24.621 9.98263 24.3691 10.0136 24.1209L10.357 21.3656C10.4368 20.7255 10.7474 20.1367 11.2302 19.7098C11.7131 19.283 12.335 19.0476 12.9789 19.0478H13.288" stroke="black" stroke-width="2" stroke-linecap="round" stroke-linejoin="round"/>
</svg>
